<svg xmlns="http://www.w3.org/2000/svg" width="128" height="128" viewBox="0 0 128 128" role="img" aria-label="戰場醫師 Q 醫療注射" data-skill-id="zhanchang:Q" data-scene="heal">
<title>戰場醫師 · Q 醫療注射</title>
<defs><radialGradient id="ground"><stop stop-color="#2a6a4a"/><stop offset="1" stop-color="#07111e"/></radialGradient><linearGradient id="bright" x2="1" y2="1"><stop stop-color="#effff4"/><stop offset=".52" stop-color="#65e89b"/><stop offset="1" stop-color="#2a6a4a"/></linearGradient><linearGradient id="metal" x2="1" y2="1"><stop stop-color="#65e89b"/><stop offset="1" stop-color="#2a6a4a"/></linearGradient><radialGradient id="accent"><stop stop-color="#effff4" stop-opacity=".9"/><stop offset="1" stop-color="#65e89b" stop-opacity=".25"/></radialGradient></defs>
<rect x="3" y="3" width="122" height="122" rx="15" fill="url(#ground)" stroke="#65e89b" stroke-width="2.5"/>
<path d="M64 17 C18 3 8 70 64 114 C120 70 110 3 64 17 Z" fill="url(#accent)" opacity=".17"/>
<g><path d="M37 22 L66 22 L75 31 L66 40 L37 40 Z" fill="url(#metal)" stroke="url(#bright)" stroke-width="3" stroke-linejoin="round" opacity="0.86"/><path d="M66 31 L105 64 L66 97 Z" fill="url(#metal)" stroke="url(#bright)" stroke-width="3" stroke-linejoin="round" opacity="0.78"/><path d="M37 31 L92 64 L37 97 M51 50 L51 78" fill="none" stroke="url(#bright)" stroke-width="5" stroke-linecap="round" stroke-linejoin="round" opacity="1"/><path d="M26 64 L57 64 M42 49 L42 79" fill="none" stroke="url(#bright)" stroke-width="8" stroke-linecap="round" stroke-linejoin="round" opacity="1"/><circle cx="64" cy="64" r="44" fill="none" stroke="url(#bright)" stroke-width="3" stroke-dasharray="4 7" opacity=".72"/><g transform="translate(41 38) scale(.4)" opacity=".95"><path d="M64 13 L95 42 L105 77 L70 111 L32 95 L20 60 L44 27 Z" fill="url(#metal)" stroke="url(#bright)" stroke-width="3" stroke-linejoin="round" opacity="1"/><path d="M64 13 L64 91 M20 60 L95 42 M32 95 L105 77" fill="none" stroke="url(#bright)" stroke-width="2.5" stroke-linecap="round" stroke-linejoin="round" opacity="1"/></g></g>
</svg>
