<svg xmlns="http://www.w3.org/2000/svg" width="128" height="128" viewBox="0 0 128 128" role="img" aria-label="電光刺客 W 電弧閃避" data-skill-id="dianguang:W" data-scene="guard">
<title>電光刺客 · W 電弧閃避</title>
<defs><radialGradient id="ground"><stop stop-color="#5b3c18"/><stop offset="1" stop-color="#07111e"/></radialGradient><linearGradient id="bright" x2="1" y2="1"><stop stop-color="#ffffff"/><stop offset=".52" stop-color="#ffe45e"/><stop offset="1" stop-color="#5b3c18"/></linearGradient><linearGradient id="metal" x2="1" y2="1"><stop stop-color="#ffe45e"/><stop offset="1" stop-color="#5b3c18"/></linearGradient><radialGradient id="accent"><stop stop-color="#ffffff" stop-opacity=".9"/><stop offset="1" stop-color="#ffe45e" stop-opacity=".25"/></radialGradient></defs>
<rect x="3" y="3" width="122" height="122" rx="15" fill="url(#ground)" stroke="#ffe45e" stroke-width="2.5"/>
<path d="M64 10 L112 28 L105 88 L64 117 L23 88 L16 28 Z" fill="url(#accent)" opacity=".17"/>
<g><path d="M64 10 L106 34 L95 75 Q84 87 64 110 Q44 87 33 75 L22 34 Z" fill="url(#metal)" stroke="url(#bright)" stroke-width="3" stroke-linejoin="round" opacity="1"/><path d="M22 34 L64 42 L106 34 M64 42 L64 105" fill="none" stroke="url(#bright)" stroke-width="3" stroke-linecap="round" stroke-linejoin="round" opacity="1"/><path d="M35 70 L19 82 M93 70 L109 82" fill="none" stroke="url(#bright)" stroke-width="5" stroke-linecap="round" stroke-linejoin="round" opacity="1"/><g transform="translate(38 38) scale(.43)" opacity=".95"><path d="M70 15 L36 66 L62 62 L52 111 L97 49 L70 52 Z" fill="url(#metal)" stroke="url(#bright)" stroke-width="3" stroke-linejoin="round" opacity="1"/><path d="M35 33 L24 48 L42 44 M93 85 L109 71 L102 96" fill="none" stroke="url(#bright)" stroke-width="3" stroke-linecap="round" stroke-linejoin="round" opacity="1"/></g></g>
</svg>
