<svg xmlns="http://www.w3.org/2000/svg" width="128" height="128" viewBox="0 0 128 128" role="img" aria-label="符文編織 Q 符文鎖鏈" data-skill-id="fuwenbianzhi:Q" data-scene="bind">
<title>符文編織 · Q 符文鎖鏈</title>
<defs><radialGradient id="ground"><stop stop-color="#2b5d83"/><stop offset="1" stop-color="#07111e"/></radialGradient><linearGradient id="bright" x2="1" y2="1"><stop stop-color="#effbff"/><stop offset=".52" stop-color="#8bd3ff"/><stop offset="1" stop-color="#2b5d83"/></linearGradient><linearGradient id="metal" x2="1" y2="1"><stop stop-color="#8bd3ff"/><stop offset="1" stop-color="#2b5d83"/></linearGradient><radialGradient id="accent"><stop stop-color="#effbff" stop-opacity=".9"/><stop offset="1" stop-color="#8bd3ff" stop-opacity=".25"/></radialGradient></defs>
<rect x="3" y="3" width="122" height="122" rx="15" fill="url(#ground)" stroke="#8bd3ff" stroke-width="2.5"/>
<path d="M12 47 Q64 4 116 47 L113 82 Q64 126 15 82 Z" fill="url(#accent)" opacity=".17"/>
<g><path d="M14 47 Q46 19 67 55 Q80 80 108 35 M20 85 Q49 109 67 75 Q84 46 108 87" fill="none" stroke="url(#bright)" stroke-width="7" stroke-linecap="round" stroke-linejoin="round" opacity="1"/><path d="M55 45 L75 45 L85 63 L75 83 L53 81 L43 64 Z" fill="url(#metal)" stroke="url(#bright)" stroke-width="3" stroke-linejoin="round" opacity="0.9"/><path d="M45 64 L19 64 M85 63 L110 63" fill="none" stroke="url(#bright)" stroke-width="3" stroke-linecap="round" stroke-linejoin="round" opacity="1"/><g transform="translate(40 32) scale(.5)" opacity=".95"><path d="M64 20 L95 42 L105 77 L70 111 L32 95 L20 60 L44 27 Z" fill="url(#metal)" stroke="url(#bright)" stroke-width="3" stroke-linejoin="round" opacity="1"/><path d="M64 20 L64 91 M20 60 L95 42 M32 95 L105 77" fill="none" stroke="url(#bright)" stroke-width="2.5" stroke-linecap="round" stroke-linejoin="round" opacity="1"/></g></g>
</svg>
