<svg xmlns="http://www.w3.org/2000/svg" width="128" height="128" viewBox="0 0 128 128" role="img" aria-label="靈魂共鳴 Q 靈魂束縛" data-skill-id="linghun:Q">
<title>靈魂共鳴 · Q 靈魂束縛</title>
<defs><radialGradient id="ground"><stop stop-color="#57367b"/><stop offset="1" stop-color="#07111e"/></radialGradient><linearGradient id="bright" x2="1" y2="1"><stop stop-color="#fff2ff"/><stop offset=".52" stop-color="#c9a5ff"/><stop offset="1" stop-color="#57367b"/></linearGradient><linearGradient id="metal" x2="1" y2="1"><stop stop-color="#c9a5ff"/><stop offset="1" stop-color="#57367b"/></linearGradient><radialGradient id="accent"><stop stop-color="#fff2ff" stop-opacity=".9"/><stop offset="1" stop-color="#c9a5ff" stop-opacity=".25"/></radialGradient></defs>
<rect x="3" y="3" width="122" height="122" rx="19" fill="url(#ground)" stroke="#c9a5ff" stroke-width="3"/>
<circle cx="64" cy="64" r="51" fill="url(#accent)" opacity=".27"/>
<g opacity=".65"><path d="M17 27 L33 19 L42 31 M87 30 L101 17 L116 29 M16 101 L31 111 L42 97 M86 98 L101 112 L117 101" fill="none" stroke="url(#bright)" stroke-width="3" stroke-linecap="round" stroke-linejoin="round"/></g>
<g opacity=".78"><path d="M11 113 L40 84 M84 39 L112 11" fill="none" stroke="url(#bright)" stroke-width="3" stroke-linecap="round" stroke-linejoin="round"/></g>
<g transform="translate(-4 4) rotate(2 64 64)"><path d="M33 92 L52 38 Q77 31 103 35 L91 76 L61 102 Z" fill="url(#metal)" stroke="url(#bright)" stroke-width="3.5" stroke-linejoin="round"/><path d="M50 83 Q70 60 96 58 M34 102 L24 111" fill="none" stroke="url(#bright)" stroke-width="3" stroke-linecap="round" stroke-linejoin="round"/></g>
<g><circle cx="82" cy="103" r="0" fill="#fff2ff" opacity=".8"/><circle cx="21" cy="61" r="2" fill="#fff2ff" opacity=".8"/><circle cx="87" cy="28" r="2" fill="#fff2ff" opacity=".8"/></g><path d="M18 17 L35 17 M93 111 L110 111" stroke="#fff2ff" stroke-width="2" opacity=".7"/>
</svg>
