<svg xmlns="http://www.w3.org/2000/svg" width="128" height="128" viewBox="0 0 128 128" role="img" aria-label="荊棘壁壘 P 荊棘鎧甲" data-skill-id="thornwall:P">
<title>荊棘壁壘 · P 荊棘鎧甲</title>
<defs><radialGradient id="ground"><stop stop-color="#1e5b43"/><stop offset="1" stop-color="#07111e"/></radialGradient><linearGradient id="bright" x2="1" y2="1"><stop stop-color="#efffd3"/><stop offset=".52" stop-color="#63d38a"/><stop offset="1" stop-color="#1e5b43"/></linearGradient><linearGradient id="metal" x2="1" y2="1"><stop stop-color="#63d38a"/><stop offset="1" stop-color="#1e5b43"/></linearGradient><radialGradient id="accent"><stop stop-color="#efffd3" stop-opacity=".9"/><stop offset="1" stop-color="#63d38a" stop-opacity=".25"/></radialGradient></defs>
<rect x="3" y="3" width="122" height="122" rx="19" fill="url(#ground)" stroke="#63d38a" stroke-width="3"/>
<circle cx="64" cy="64" r="51" fill="url(#accent)" opacity=".27"/>
<g opacity=".65"><path d="M8 100 Q19 60 38 38 M119 31 Q99 57 93 85 M14 76 Q29 80 31 60 M113 59 Q99 54 96 70" fill="none" stroke="url(#bright)" stroke-width="3" stroke-linecap="round" stroke-linejoin="round"/></g>
<g opacity=".78"><circle cx="64" cy="64" r="50" fill="none" stroke="url(#accent)" stroke-width="2" stroke-dasharray="9 7" opacity=".7"/></g>
<g transform="translate(4 -4) rotate(-8 64 64)"><path d="M64 23 L97 35 L94 73 Q89 96 64 107 Q39 96 34 73 L31 35 Z" fill="url(#metal)" stroke="url(#bright)" stroke-width="3.5" stroke-linejoin="round"/><path d="M64 38 L64 87 M47 52 L64 43 L81 52" fill="none" stroke="url(#bright)" stroke-width="3" stroke-linecap="round" stroke-linejoin="round"/></g>
<g><circle cx="71" cy="106" r="2" fill="#efffd3" opacity=".8"/><circle cx="24" cy="49" r="3" fill="#efffd3" opacity=".8"/><circle cx="96" cy="36" r="4" fill="#efffd3" opacity=".8"/></g><path d="M18 17 L35 17 M93 111 L110 111" stroke="#efffd3" stroke-width="2" opacity=".7"/>
</svg>
