<svg xmlns="http://www.w3.org/2000/svg" width="128" height="128" viewBox="0 0 128 128" role="img" aria-label="狂風戰士 E 風之鎧甲" data-skill-id="kuangfeng:E">
<title>狂風戰士 · E 風之鎧甲</title>
<defs><radialGradient id="ground"><stop stop-color="#1f4f76"/><stop offset="1" stop-color="#07111e"/></radialGradient><linearGradient id="bright" x2="1" y2="1"><stop stop-color="#f2ffff"/><stop offset=".52" stop-color="#82e8ff"/><stop offset="1" stop-color="#1f4f76"/></linearGradient><linearGradient id="metal" x2="1" y2="1"><stop stop-color="#82e8ff"/><stop offset="1" stop-color="#1f4f76"/></linearGradient><radialGradient id="accent"><stop stop-color="#f2ffff" stop-opacity=".9"/><stop offset="1" stop-color="#82e8ff" stop-opacity=".25"/></radialGradient></defs>
<rect x="3" y="3" width="122" height="122" rx="19" fill="url(#ground)" stroke="#82e8ff" stroke-width="3"/>
<circle cx="64" cy="64" r="51" fill="url(#accent)" opacity=".27"/>
<g opacity=".65"><path d="M9 37 Q28 20 42 30 M8 81 Q23 96 40 86 M88 28 Q104 17 119 33 M91 92 Q105 105 120 86" fill="none" stroke="url(#bright)" stroke-width="3" stroke-linecap="round" stroke-linejoin="round"/></g>
<g opacity=".78"><path d="M11 97 L41 69 M86 38 L117 9 M18 113 L33 97" fill="none" stroke="url(#bright)" stroke-width="3" stroke-linecap="round" stroke-linejoin="round"/></g>
<g transform="translate(-5 5) rotate(7 64 64)"><path d="M64 23 L97 35 L94 73 Q89 96 64 107 Q39 96 34 73 L31 35 Z" fill="url(#metal)" stroke="url(#bright)" stroke-width="3.5" stroke-linejoin="round"/><path d="M64 38 L64 87 M47 52 L64 43 L81 52" fill="none" stroke="url(#bright)" stroke-width="3" stroke-linecap="round" stroke-linejoin="round"/></g>
<g><circle cx="92" cy="97" r="4" fill="#f2ffff" opacity=".8"/><circle cx="22" cy="72" r="3" fill="#f2ffff" opacity=".8"/><circle cx="77" cy="23" r="2" fill="#f2ffff" opacity=".8"/></g><path d="M18 17 L35 17 M93 111 L110 111" stroke="#f2ffff" stroke-width="2" opacity=".7"/>
</svg>
