<svg xmlns="http://www.w3.org/2000/svg" width="128" height="128" viewBox="0 0 128 128" role="img" aria-label="狂風戰士 P 風刃之舞" data-skill-id="kuangfeng:P" data-scene="passive">
<title>狂風戰士 · P 風刃之舞</title>
<defs><radialGradient id="ground"><stop stop-color="#1f4f76"/><stop offset="1" stop-color="#07111e"/></radialGradient><linearGradient id="bright" x2="1" y2="1"><stop stop-color="#f2ffff"/><stop offset=".52" stop-color="#82e8ff"/><stop offset="1" stop-color="#1f4f76"/></linearGradient><linearGradient id="metal" x2="1" y2="1"><stop stop-color="#82e8ff"/><stop offset="1" stop-color="#1f4f76"/></linearGradient><radialGradient id="accent"><stop stop-color="#f2ffff" stop-opacity=".9"/><stop offset="1" stop-color="#82e8ff" stop-opacity=".25"/></radialGradient></defs>
<rect x="3" y="3" width="122" height="122" rx="15" fill="url(#ground)" stroke="#82e8ff" stroke-width="2.5"/>
<path d="M64 11 L107 39 L112 89 L64 118 L16 89 L21 39 Z" fill="url(#accent)" opacity=".18"/>
<g><path d="M15 83 Q43 15 100 33 Q75 43 47 80 Q79 62 113 78 M22 102 Q64 73 104 105" fill="none" stroke="url(#bright)" stroke-width="8" stroke-linecap="round" stroke-linejoin="round" opacity="1"/><path d="M50 30 L75 46 L97 25 Z" fill="url(#metal)" stroke="url(#bright)" stroke-width="3" stroke-linejoin="round" opacity="0.75"/><g transform="translate(22 22) scale(.66)" opacity=".95"><path d="M19 43 Q62 13 98 39 Q106 51 88 62 Q65 69 48 51 M24 79 Q67 43 105 81 Q107 96 75 101" fill="none" stroke="url(#bright)" stroke-width="6" stroke-linecap="round" stroke-linejoin="round" opacity="1"/><path d="M42 99 Q50 77 68 82" fill="none" stroke="url(#bright)" stroke-width="3" stroke-linecap="round" stroke-linejoin="round" opacity="1"/></g><path d="M14 107 L34 97 M94 30 L113 21" fill="none" stroke="url(#bright)" stroke-width="2.5" stroke-linecap="round" stroke-linejoin="round" opacity="0.8"/></g>
</svg>
