<svg xmlns="http://www.w3.org/2000/svg" width="128" height="128" viewBox="0 0 128 128" role="img" aria-label="剃翼 Q 翼刃切割" data-skill-id="razorwing:Q">
<title>剃翼 · Q 翼刃切割</title>
<defs><radialGradient id="ground"><stop stop-color="#4a2230"/><stop offset="1" stop-color="#07111e"/></radialGradient><linearGradient id="bright" x2="1" y2="1"><stop stop-color="#ffe5c9"/><stop offset=".52" stop-color="#ff6675"/><stop offset="1" stop-color="#4a2230"/></linearGradient><linearGradient id="metal" x2="1" y2="1"><stop stop-color="#ff6675"/><stop offset="1" stop-color="#4a2230"/></linearGradient><radialGradient id="accent"><stop stop-color="#ffe5c9" stop-opacity=".9"/><stop offset="1" stop-color="#ff6675" stop-opacity=".25"/></radialGradient></defs>
<rect x="3" y="3" width="122" height="122" rx="19" fill="url(#ground)" stroke="#ff6675" stroke-width="3"/>
<circle cx="64" cy="64" r="51" fill="url(#accent)" opacity=".27"/>
<g opacity=".65"><path d="M15 27 L33 17 L39 32 M89 16 L110 25 L103 43 M17 103 L36 113 L44 99 M89 112 L108 99 L101 87" fill="none" stroke="url(#bright)" stroke-width="3" stroke-linecap="round" stroke-linejoin="round"/></g>
<g opacity=".78"><path d="M11 113 L40 84 M84 39 L112 11" fill="none" stroke="url(#bright)" stroke-width="3" stroke-linecap="round" stroke-linejoin="round"/></g>
<g transform="translate(6 -6) rotate(2 64 64)"><path d="M29 88 L72 45 L66 33 L104 24 L95 62 L83 56 L40 99 Z" fill="url(#metal)" stroke="url(#bright)" stroke-width="3.5" stroke-linejoin="round"/><path d="M23 39 L51 66 M29 29 L61 61" fill="none" stroke="url(#bright)" stroke-width="3" stroke-linecap="round" stroke-linejoin="round"/></g>
<g><circle cx="57" cy="22" r="2" fill="#ffe5c9" opacity=".8"/><circle cx="104" cy="79" r="3" fill="#ffe5c9" opacity=".8"/><circle cx="32" cy="92" r="4" fill="#ffe5c9" opacity=".8"/></g><path d="M18 17 L35 17 M93 111 L110 111" stroke="#ffe5c9" stroke-width="2" opacity=".7"/>
</svg>
