<svg xmlns="http://www.w3.org/2000/svg" width="128" height="128" viewBox="0 0 128 128" role="img" aria-label="旋風射手 R 旋風射擊" data-skill-id="xuanfeng:R" data-scene="domain">
<title>旋風射手 · R 旋風射擊</title>
<defs><radialGradient id="ground"><stop stop-color="#255a75"/><stop offset="1" stop-color="#07111e"/></radialGradient><linearGradient id="bright" x2="1" y2="1"><stop stop-color="#efffff"/><stop offset=".52" stop-color="#72e7ff"/><stop offset="1" stop-color="#255a75"/></linearGradient><linearGradient id="metal" x2="1" y2="1"><stop stop-color="#72e7ff"/><stop offset="1" stop-color="#255a75"/></linearGradient><radialGradient id="accent"><stop stop-color="#efffff" stop-opacity=".9"/><stop offset="1" stop-color="#72e7ff" stop-opacity=".25"/></radialGradient></defs>
<rect x="3" y="3" width="122" height="122" rx="15" fill="url(#ground)" stroke="#72e7ff" stroke-width="2.5"/>
<ellipse cx="64" cy="68" rx="55" ry="41" fill="url(#accent)" opacity=".18"/>
<g><circle cx="64" cy="64" r="39" fill="none" stroke="url(#bright)" stroke-width="5" stroke-dasharray="8 6" opacity=".72"/><path d="M79 71 L103 90" fill="none" stroke="url(#bright)" stroke-width="4" stroke-linecap="round" stroke-linejoin="round" opacity="1"/><path d="M65 81 L61 111" fill="none" stroke="url(#bright)" stroke-width="4" stroke-linecap="round" stroke-linejoin="round" opacity="1"/><path d="M50 74 L22 85" fill="none" stroke="url(#bright)" stroke-width="4" stroke-linecap="round" stroke-linejoin="round" opacity="1"/><path d="M49 57 L25 38" fill="none" stroke="url(#bright)" stroke-width="4" stroke-linecap="round" stroke-linejoin="round" opacity="1"/><path d="M63 47 L67 17" fill="none" stroke="url(#bright)" stroke-width="4" stroke-linecap="round" stroke-linejoin="round" opacity="1"/><path d="M78 54 L106 43" fill="none" stroke="url(#bright)" stroke-width="4" stroke-linecap="round" stroke-linejoin="round" opacity="1"/><path d="M64 28 L90 62 L65 92 L43 64 Z" fill="url(#metal)" stroke="url(#bright)" stroke-width="3" stroke-linejoin="round" opacity="0.8"/><g transform="translate(24 24) scale(.62)" opacity=".95"><path d="M19 53 Q62 13 98 39 Q106 51 88 62 Q65 69 48 51 M24 79 Q67 43 105 81 Q107 96 75 101" fill="none" stroke="url(#bright)" stroke-width="6" stroke-linecap="round" stroke-linejoin="round" opacity="1"/><path d="M42 99 Q50 85 68 82" fill="none" stroke="url(#bright)" stroke-width="3" stroke-linecap="round" stroke-linejoin="round" opacity="1"/></g><path d="M12 36 Q26 20 46 30 M82 26 Q105 19 117 41 M12 91 Q32 108 48 89 M85 99 Q109 106 119 83" fill="none" stroke="url(#bright)" stroke-width="4" stroke-linecap="round" stroke-linejoin="round" opacity="1"/><path d="M12 17 L28 26 M100 102 L116 112" fill="none" stroke="url(#bright)" stroke-width="3" stroke-linecap="round" stroke-linejoin="round" opacity="0.9"/></g>
</svg>
