<svg xmlns="http://www.w3.org/2000/svg" width="128" height="128" viewBox="0 0 128 128" role="img" aria-label="雷鳴先知 R 神諭雷霆" data-skill-id="leiming:R">
<title>雷鳴先知 · R 神諭雷霆</title>
<defs><radialGradient id="ground"><stop stop-color="#255579"/><stop offset="1" stop-color="#07111e"/></radialGradient><linearGradient id="bright" x2="1" y2="1"><stop stop-color="#f0ffff"/><stop offset=".52" stop-color="#7fd8ff"/><stop offset="1" stop-color="#255579"/></linearGradient><linearGradient id="metal" x2="1" y2="1"><stop stop-color="#7fd8ff"/><stop offset="1" stop-color="#255579"/></linearGradient><radialGradient id="accent"><stop stop-color="#f0ffff" stop-opacity=".9"/><stop offset="1" stop-color="#7fd8ff" stop-opacity=".25"/></radialGradient></defs>
<rect x="3" y="3" width="122" height="122" rx="19" fill="url(#ground)" stroke="#7fd8ff" stroke-width="3"/>
<circle cx="64" cy="64" r="51" fill="url(#accent)" opacity=".27"/>
<g opacity=".65"><path d="M13 34 L32 29 L22 51 L42 45 M89 91 L109 79 L98 104 L116 99" fill="none" stroke="url(#bright)" stroke-width="3" stroke-linecap="round" stroke-linejoin="round"/></g>
<g opacity=".78"><circle cx="64" cy="64" r="49" fill="none" stroke="url(#accent)" stroke-width="3" opacity=".8"/><path d="M64 5 L59 16 L69 16 Z" fill="url(#bright)" transform="rotate(1 64 64)"/><path d="M64 5 L59 16 L69 16 Z" fill="url(#bright)" transform="rotate(46 64 64)"/><path d="M64 5 L59 16 L69 16 Z" fill="url(#bright)" transform="rotate(91 64 64)"/><path d="M64 5 L59 16 L69 16 Z" fill="url(#bright)" transform="rotate(136 64 64)"/><path d="M64 5 L59 16 L69 16 Z" fill="url(#bright)" transform="rotate(181 64 64)"/><path d="M64 5 L59 16 L69 16 Z" fill="url(#bright)" transform="rotate(226 64 64)"/><path d="M64 5 L59 16 L69 16 Z" fill="url(#bright)" transform="rotate(271 64 64)"/><path d="M64 5 L59 16 L69 16 Z" fill="url(#bright)" transform="rotate(316 64 64)"/></g>
<g transform="translate(5 -5) rotate(-7 64 64)"><path d="M71 11 L32 70 L60 66 L53 113 L101 48 L69 52 Z" fill="url(#metal)" stroke="url(#bright)" stroke-width="3.5" stroke-linejoin="round"/><path d="M18 30 L38 36 L27 53 M99 24 L113 34 L102 48 M92 94 L111 99 L101 111" fill="none" stroke="url(#bright)" stroke-width="4" stroke-linecap="round" stroke-linejoin="round"/></g>
<g><circle cx="22" cy="71" r="0" fill="#f0ffff" opacity=".8"/><circle cx="78" cy="23" r="1" fill="#f0ffff" opacity=".8"/><circle cx="93" cy="96" r="1" fill="#f0ffff" opacity=".8"/></g><path d="M18 17 L35 17 M93 111 L110 111" stroke="#f0ffff" stroke-width="2" opacity=".7"/>
</svg>
