<svg xmlns="http://www.w3.org/2000/svg" width="128" height="128" viewBox="0 0 128 128" role="img" aria-label="風暴鐵甲 W 鐵甲衝鋒" data-skill-id="fengbao:W">
<title>風暴鐵甲 · W 鐵甲衝鋒</title>
<defs><radialGradient id="ground"><stop stop-color="#334756"/><stop offset="1" stop-color="#07111e"/></radialGradient><linearGradient id="bright" x2="1" y2="1"><stop stop-color="#eff8ff"/><stop offset=".52" stop-color="#8ea7bd"/><stop offset="1" stop-color="#334756"/></linearGradient><linearGradient id="metal" x2="1" y2="1"><stop stop-color="#8ea7bd"/><stop offset="1" stop-color="#334756"/></linearGradient><radialGradient id="accent"><stop stop-color="#eff8ff" stop-opacity=".9"/><stop offset="1" stop-color="#8ea7bd" stop-opacity=".25"/></radialGradient></defs>
<rect x="3" y="3" width="122" height="122" rx="19" fill="url(#ground)" stroke="#8ea7bd" stroke-width="3"/>
<circle cx="64" cy="64" r="51" fill="url(#accent)" opacity=".27"/>
<g opacity=".65"><path d="M13 34 L32 29 L22 51 L42 45 M89 91 L109 79 L98 104 L116 99" fill="none" stroke="url(#bright)" stroke-width="3" stroke-linecap="round" stroke-linejoin="round"/></g>
<g opacity=".78"><path d="M17 67 Q28 37 41 36 M111 67 Q100 37 87 36" fill="none" stroke="url(#bright)" stroke-width="3" stroke-linecap="round" stroke-linejoin="round"/></g>
<g transform="translate(-6 6) rotate(-1 64 64)"><path d="M27 87 L63 23 L60 56 L99 37 L68 103 L70 72 Z" fill="url(#metal)" stroke="url(#bright)" stroke-width="3.5" stroke-linejoin="round"/><path d="M19 43 L46 43 M18 58 L41 58" fill="none" stroke="url(#bright)" stroke-width="3" stroke-linecap="round" stroke-linejoin="round"/></g>
<g><circle cx="23" cy="51" r="1" fill="#eff8ff" opacity=".8"/><circle cx="95" cy="35" r="0" fill="#eff8ff" opacity=".8"/><circle cx="74" cy="106" r="2" fill="#eff8ff" opacity=".8"/></g><path d="M18 17 L35 17 M93 111 L110 111" stroke="#eff8ff" stroke-width="2" opacity=".7"/>
</svg>
