<svg xmlns="http://www.w3.org/2000/svg" width="128" height="128" viewBox="0 0 128 128" role="img" aria-label="賭徒 Q 命運之牌" data-skill-id="gambler:Q">
<title>賭徒 · Q 命運之牌</title>
<defs><radialGradient id="ground"><stop stop-color="#49316f"/><stop offset="1" stop-color="#07111e"/></radialGradient><linearGradient id="bright" x2="1" y2="1"><stop stop-color="#fff1c8"/><stop offset=".52" stop-color="#d59bff"/><stop offset="1" stop-color="#49316f"/></linearGradient><linearGradient id="metal" x2="1" y2="1"><stop stop-color="#d59bff"/><stop offset="1" stop-color="#49316f"/></linearGradient><radialGradient id="accent"><stop stop-color="#fff1c8" stop-opacity=".9"/><stop offset="1" stop-color="#d59bff" stop-opacity=".25"/></radialGradient></defs>
<rect x="3" y="3" width="122" height="122" rx="19" fill="url(#ground)" stroke="#d59bff" stroke-width="3"/>
<circle cx="64" cy="64" r="51" fill="url(#accent)" opacity=".27"/>
<g opacity=".65"><path d="M17 27 L33 19 L42 31 M87 30 L101 17 L116 29 M16 101 L31 111 L42 97 M86 98 L101 112 L117 101" fill="none" stroke="url(#bright)" stroke-width="3" stroke-linecap="round" stroke-linejoin="round"/></g>
<g opacity=".78"><path d="M11 113 L40 84 M84 39 L112 11" fill="none" stroke="url(#bright)" stroke-width="3" stroke-linecap="round" stroke-linejoin="round"/></g>
<g transform="translate(-1 1) rotate(0 64 64)"><path d="M29 88 L72 45 L66 33 L104 24 L95 62 L83 56 L40 99 Z" fill="url(#metal)" stroke="url(#bright)" stroke-width="3.5" stroke-linejoin="round"/><path d="M23 39 L51 66 M29 29 L61 61" fill="none" stroke="url(#bright)" stroke-width="3" stroke-linecap="round" stroke-linejoin="round"/></g>
<g><circle cx="97" cy="37" r="1" fill="#fff1c8" opacity=".8"/><circle cx="71" cy="106" r="1" fill="#fff1c8" opacity=".8"/><circle cx="23" cy="50" r="0" fill="#fff1c8" opacity=".8"/></g><path d="M18 17 L35 17 M93 111 L110 111" stroke="#fff1c8" stroke-width="2" opacity=".7"/>
</svg>
