<svg xmlns="http://www.w3.org/2000/svg" width="128" height="128" viewBox="0 0 128 128" role="img" aria-label="鐵壁輔助 R 鐵壁衝鋒" data-skill-id="tiebi:R" data-scene="dash">
<title>鐵壁輔助 · R 鐵壁衝鋒</title>
<defs><radialGradient id="ground"><stop stop-color="#3f4b55"/><stop offset="1" stop-color="#07111e"/></radialGradient><linearGradient id="bright" x2="1" y2="1"><stop stop-color="#fff0c5"/><stop offset=".52" stop-color="#b8c4d0"/><stop offset="1" stop-color="#3f4b55"/></linearGradient><linearGradient id="metal" x2="1" y2="1"><stop stop-color="#b8c4d0"/><stop offset="1" stop-color="#3f4b55"/></linearGradient><radialGradient id="accent"><stop stop-color="#fff0c5" stop-opacity=".9"/><stop offset="1" stop-color="#b8c4d0" stop-opacity=".25"/></radialGradient></defs>
<rect x="3" y="3" width="122" height="122" rx="15" fill="url(#ground)" stroke="#b8c4d0" stroke-width="2.5"/>
<path d="M11 100 L68 13 L116 24 L55 115 Z" fill="url(#accent)" opacity=".2"/>
<g><path d="M16 94 L58 55 L48 33 L103 16 L83 56 L108 67 L49 110 L59 78 Z" fill="url(#metal)" stroke="url(#bright)" stroke-width="3" stroke-linejoin="round" opacity="1"/><path d="M17 43 L42 51 M13 61 L35 65 M78 93 L111 104" fill="none" stroke="url(#bright)" stroke-width="4" stroke-linecap="round" stroke-linejoin="round" opacity="1"/><path d="M21 22 L47 29 L31 44 Z" fill="url(#metal)" stroke="url(#bright)" stroke-width="3" stroke-linejoin="round" opacity="0.55"/><g transform="translate(55 40) scale(.43)" opacity=".95"><path d="M35 23 L84 21 L105 47 L97 87 L64 109 L27 87 L23 47 Z" fill="url(#metal)" stroke="url(#bright)" stroke-width="3" stroke-linejoin="round" opacity="1"/><path d="M35 23 L49 53 L82 39 L97 87 M27 87 L49 53 L64 109 M49 53 L82 39" fill="none" stroke="url(#bright)" stroke-width="3" stroke-linecap="round" stroke-linejoin="round" opacity="1"/></g><path d="M13 31 L38 20 L42 37 M87 20 L115 34 L102 48 M16 97 L40 109 M86 109 L111 94" fill="none" stroke="url(#bright)" stroke-width="5" stroke-linecap="round" stroke-linejoin="round" opacity="1"/><path d="M12 17 L28 26 M100 102 L116 112" fill="none" stroke="url(#bright)" stroke-width="3" stroke-linecap="round" stroke-linejoin="round" opacity="0.9"/></g>
</svg>
