<svg xmlns="http://www.w3.org/2000/svg" width="128" height="128" viewBox="0 0 128 128" role="img" aria-label="時光守護 Q 時光束縛" data-skill-id="shiguang:Q" data-scene="bind">
<title>時光守護 · Q 時光束縛</title>
<defs><radialGradient id="ground"><stop stop-color="#483a73"/><stop offset="1" stop-color="#07111e"/></radialGradient><linearGradient id="bright" x2="1" y2="1"><stop stop-color="#f8edff"/><stop offset=".52" stop-color="#c4a4ff"/><stop offset="1" stop-color="#483a73"/></linearGradient><linearGradient id="metal" x2="1" y2="1"><stop stop-color="#c4a4ff"/><stop offset="1" stop-color="#483a73"/></linearGradient><radialGradient id="accent"><stop stop-color="#f8edff" stop-opacity=".9"/><stop offset="1" stop-color="#c4a4ff" stop-opacity=".25"/></radialGradient></defs>
<rect x="3" y="3" width="122" height="122" rx="15" fill="url(#ground)" stroke="#c4a4ff" stroke-width="2.5"/>
<path d="M12 47 Q64 4 116 47 L113 82 Q64 126 15 82 Z" fill="url(#accent)" opacity=".17"/>
<g><circle cx="64" cy="64" r="42" fill="none" stroke="url(#bright)" stroke-width="5"  opacity=".72"/><circle cx="64" cy="64" r="24" fill="none" stroke="url(#bright)" stroke-width="3" stroke-dasharray="3 8" opacity=".72"/><path d="M64 27 L71 60 L95 74 L83 88 L58 73 Z" fill="url(#metal)" stroke="url(#bright)" stroke-width="3" stroke-linejoin="round" opacity="0.86"/><path d="M19 31 L19 45 M19 31 L33 31 M109 31 L109 45 M109 31 L95 31 M19 97 L19 83 M19 97 L33 97 M109 97 L109 83 M109 97 L95 97" fill="none" stroke="url(#bright)" stroke-width="4" stroke-linecap="round" stroke-linejoin="round" opacity="1"/><g transform="translate(40 32) scale(.5)" opacity=".95"><path d="M64 20 L95 42 L105 77 L70 111 L32 95 L20 60 L44 27 Z" fill="url(#metal)" stroke="url(#bright)" stroke-width="3" stroke-linejoin="round" opacity="1"/><path d="M64 20 L64 91 M20 60 L95 42 M32 95 L105 77" fill="none" stroke="url(#bright)" stroke-width="2.5" stroke-linecap="round" stroke-linejoin="round" opacity="1"/></g></g>
</svg>
